<svg id="Layer_1" data-name="Layer 1" xmlns="http://www.w3.org/2000/svg" xmlns:xlink="http://www.w3.org/1999/xlink" viewBox="0 0 209 209"><defs><style>.cls-1{fill:none;}.cls-2{fill:#999;opacity:0.2;}.cls-3{font-size:15px;fill:#404041;font-family:Helvetica-Bold, Helvetica;font-weight:700;}.cls-4{letter-spacing:-0.02em;}.cls-5{letter-spacing:-0.07em;}.cls-6{clip-path:url(#clip-path);}.cls-7{clip-path:url(#clip-path-2);}.cls-8{fill:#989898;}.cls-9{opacity:0.5;}.cls-10{clip-path:url(#clip-path-3);}.cls-11{fill:#fff;}.cls-12{fill:#2e3191;}</style><clipPath id="clip-path"><rect class="cls-1" x="51" y="41.22" width="106" height="90.6"/></clipPath><clipPath id="clip-path-2"><rect class="cls-1" x="51" y="41.22" width="106" height="90.6"/></clipPath><clipPath id="clip-path-3"><rect class="cls-1" x="89.61" y="54.72" width="73.16" height="52.95"/></clipPath></defs><title>training</title><circle class="cls-2" cx="104.5" cy="104.5" r="99.5"/><text class="cls-3" transform="translate(92.36 153.62)">AL<tspan class="cls-4" x="20" y="0">L</tspan><tspan x="-34.59" y="18">C</tspan><tspan class="cls-5" x="-23.76" y="18">A</tspan><tspan x="-14.03" y="18">TEGORIES</tspan></text><g class="cls-6"><g class="cls-7"><path class="cls-8" d="M82.44,95.58c.87,4.74,1.06,10.71,8.36,10.71H133c6.91,0,7.19-5.22,8.4-9.63l8.86-32.21H76.73Z"/><g class="cls-9"><g class="cls-10"><path class="cls-11" d="M113.36,78.05a77.85,77.85,0,0,0-11.24,28.24H133c6.91,0,7.19-5.22,8.4-9.63l8.86-32.21H124a87.43,87.43,0,0,0-10.65,13.6"/></g></g><path class="cls-12" d="M125.42,118.27c-4.12,0-7.46,3-7.46,6.78s3.34,6.77,7.46,6.77,7.45-3,7.45-6.77-3.34-6.78-7.45-6.78"/><path class="cls-12" d="M96.87,118.27c-4.12,0-7.46,3-7.46,6.78s3.34,6.77,7.46,6.77,7.45-3,7.45-6.77-3.34-6.78-7.45-6.78"/><path class="cls-12" d="M146.39,73.62H95.66A3.58,3.58,0,0,0,91.93,77h0a3.58,3.58,0,0,0,3.73,3.39h48.86l-2.13,7.73H104.77a3.58,3.58,0,0,0-3.72,3.39h0a3.58,3.58,0,0,0,3.72,3.39h35.76l-.39,1.43c-1.18,4.29-1.45,9.36-8.17,9.36H91c-7.1,0-7.28-5.8-8.12-10.41L77.32,65.05h71.42Zm7.43-15.34H76L73.87,44.14c-.31-2-1.56-2.92-3.79-2.92H54.73a3.4,3.4,0,1,0,0,6.77H66.88l8.71,48.16C77,104.44,79.13,112.46,91,112.46h41c12,0,13.32-7.78,15.48-15.62l9.14-33.24c.71-2.57.88-5.32-2.77-5.32"/></g></g></svg>