<svg id="Layer_1" data-name="Layer 1" xmlns="http://www.w3.org/2000/svg" viewBox="0 0 209 209"><defs><style>.cls-1{fill:#999;opacity:0.2;}.cls-2,.cls-3{fill:#989898;}.cls-2{opacity:0.5;}.cls-4{fill:#2e3191;}.cls-5{font-size:15px;fill:#404041;font-family:Helvetica-Bold, Helvetica;font-weight:700;}</style></defs><title>training</title><circle class="cls-1" cx="104.5" cy="104.5" r="99.5"/><path class="cls-2" d="M136.73,125.83c-4.47-6.81-10.35-15.35-17.54-24.66-3.65-4.73-9.12-11.78-16.51-19.85a224.44,224.44,0,0,0-25-23.45V128Z"/><path class="cls-3" d="M75.35,58.14a163.26,163.26,0,0,0,26.57,40.48,162.74,162.74,0,0,0,36,30.07V57.87Z"/><path class="cls-4" d="M101.92,75.81,92.53,85.2l-3.68-3.69a2.85,2.85,0,0,0-4,4l5.71,5.71a2.84,2.84,0,0,0,2,.83,2.88,2.88,0,0,0,2-.83L106,79.85a2.85,2.85,0,0,0-4-4Z"/><path class="cls-4" d="M101.92,98.62,92.53,108l-3.68-3.68a2.85,2.85,0,0,0-4,4l5.71,5.7a2.84,2.84,0,0,0,2,.83,2.88,2.88,0,0,0,2-.83l11.4-11.4a2.85,2.85,0,0,0-4-4Z"/><path class="cls-4" d="M112.49,83.53a2.86,2.86,0,0,0,2.85,2.85h11.4a2.85,2.85,0,1,0,0-5.7h-11.4A2.86,2.86,0,0,0,112.49,83.53Z"/><path class="cls-4" d="M126.74,103.49h-11.4a2.85,2.85,0,0,0,0,5.7h11.4a2.85,2.85,0,1,0,0-5.7Z"/><path class="cls-4" d="M121,46.46h-6.19a8.56,8.56,0,0,0-16.13,0H92.53a2.86,2.86,0,0,0-2.85,2.86v2.85H78.27a5.71,5.71,0,0,0-5.7,5.7V126.3a5.71,5.71,0,0,0,5.7,5.7h57a5.71,5.71,0,0,0,5.7-5.7V57.87a5.71,5.71,0,0,0-5.7-5.7H123.89V49.32A2.85,2.85,0,0,0,121,46.46ZM95.38,52.17h5.7a2.85,2.85,0,0,0,2.85-2.85,2.86,2.86,0,1,1,5.71,0,2.85,2.85,0,0,0,2.85,2.85h5.7v5.7H95.38Zm39.92,5.7V126.3h-57V57.87H89.68v2.85a2.86,2.86,0,0,0,2.85,2.85H121a2.85,2.85,0,0,0,2.85-2.85V57.87Z"/><text class="cls-5" transform="translate(66.39 153.62)">LIFESTYLE<tspan x="-5" y="18">CONCIERGE</tspan></text></svg>