<svg id="Layer_1" data-name="Layer 1" xmlns="http://www.w3.org/2000/svg" viewBox="0 0 209 209"><defs><style>.cls-1{fill:#999;opacity:0.2;}.cls-2,.cls-3{fill:#989898;}.cls-2{opacity:0.5;}.cls-4,.cls-5{fill:#2e3191;}.cls-4{stroke:#2e3191;stroke-miterlimit:10;stroke-width:3px;}.cls-6{font-size:15px;fill:#404041;font-family:Helvetica-Bold, Helvetica;font-weight:700;}</style></defs><title>training</title><circle class="cls-1" cx="104.5" cy="104.5" r="99.5"/><path class="cls-2" d="M155.26,111.45c-7.36-6.42-17-14.47-28.87-23.24-6-4.46-15-11.1-27.17-18.71A363.85,363.85,0,0,0,58.16,47.4v66.07Z"/><path class="cls-3" d="M56.82,47.64a319.27,319.27,0,0,1,69.57,40.57,308,308,0,0,1,26.44,22.86V47.4Z"/><path class="cls-4" d="M142.53,42H67c-7.08,0-14.66,3.65-14.66,13.88v48c0,10.23,7.58,13.89,14.66,13.89h28v8.84H90.29a2.14,2.14,0,1,0,0,4.27h29.77a2.14,2.14,0,1,0,0-4.27h-5.5v-8.84h28c10.8,0,14.66-7.18,14.66-13.89v-48C157.19,45.65,149.61,42,142.53,42Zm-32.48,84.59H99.45v-8.84h10.6Zm42.63-22.73c0,2.88-1,9.61-10.15,9.61H67c-3,0-10.15-.94-10.15-9.61v-3h95.86Zm0-7.3H56.82V56c0-8.67,7.11-9.61,10.15-9.61h75.56c3,0,10.15.94,10.15,9.61Z"/><rect class="cls-5" x="71.76" y="59.92" width="67.1" height="5.87" rx="2.94" ry="2.94"/><rect class="cls-5" x="71.76" y="71.67" width="67.1" height="5.87" rx="2.94" ry="2.94"/><text class="cls-6" transform="translate(40.14 153.62)">ONLINE TRAINING <tspan x="29.57" y="18">COURSES</tspan></text></svg>